<?xml version="1.0" standalone="no"?>
<!DOCTYPE svg PUBLIC "-//W3C//DTD SVG 20010904//EN"
 "http://www.w3.org/TR/2001/REC-SVG-20010904/DTD/svg10.dtd">
<svg version="1.0" xmlns="http://www.w3.org/2000/svg"
 width="1900.000000pt" height="850.000000pt" viewBox="0 0 1900.000000 850.000000"
 preserveAspectRatio="xMidYMid meet">

<g transform="translate(0.000000,850.000000) scale(0.100000,-0.100000)"
fill="#000000" stroke="none">
<path d="M1250 5599 c-169 -19 -301 -59 -450 -135 -126 -65 -215 -130 -303
-223 -162 -172 -275 -404 -324 -661 -26 -139 -26 -534 1 -675 90 -481 367
-816 796 -959 165 -55 268 -70 475 -70 390 2 618 86 836 311 86 87 140 164
192 268 52 105 72 164 60 176 -6 6 -112 66 -237 135 -252 137 -266 141 -287
76 -46 -145 -163 -285 -289 -345 -100 -48 -154 -59 -285 -60 -325 -3 -528 189
-591 560 -25 149 -15 455 19 585 61 231 191 381 382 441 56 17 93 22 190 21
254 -1 404 -83 521 -284 36 -62 52 -80 69 -80 17 0 414 271 468 320 18 16 -74
183 -147 268 -133 155 -323 260 -551 305 -177 35 -379 45 -545 26z"/>
<path d="M3755 5603 c-22 -2 -88 -13 -148 -24 -522 -97 -866 -460 -965 -1019
-24 -135 -23 -518 1 -647 38 -203 112 -394 208 -534 108 -160 303 -320 481
-396 314 -133 727 -148 1058 -37 527 176 821 641 820 1298 -1 773 -420 1280
-1118 1355 -97 10 -246 12 -337 4z m344 -578 c209 -64 335 -204 391 -435 33
-139 45 -328 32 -482 -15 -167 -41 -270 -93 -376 -97 -198 -268 -295 -519
-295 -183 0 -303 45 -410 152 -138 139 -200 341 -200 651 1 229 25 360 95 505
75 156 201 255 370 290 87 18 258 13 334 -10z"/>
<path d="M10850 5595 c-297 -45 -504 -152 -649 -335 -96 -121 -142 -268 -142
-455 0 -366 189 -593 606 -729 61 -20 205 -58 320 -85 231 -55 280 -70 340
-105 87 -52 127 -121 126 -218 0 -116 -62 -192 -186 -231 -94 -29 -327 -32
-420 -4 -176 52 -262 103 -389 229 -63 62 -107 98 -121 98 -14 0 -74 -57 -190
-182 -94 -100 -176 -190 -183 -200 -37 -51 170 -253 357 -347 228 -115 572
-176 863 -152 324 27 554 121 711 291 155 167 228 404 199 649 -31 269 -168
452 -425 570 -113 53 -208 81 -496 145 -134 31 -275 67 -314 82 -139 53 -204
157 -177 279 27 121 127 176 344 190 199 13 399 -53 530 -176 43 -40 72 -59
89 -59 20 0 63 40 203 191 l177 190 -64 66 c-35 35 -90 83 -122 104 -91 63
-253 137 -357 163 -170 43 -457 57 -630 31z"/>
<path d="M13390 5604 c-19 -2 -77 -11 -128 -19 -467 -77 -814 -388 -947 -850
-56 -194 -78 -468 -56 -690 65 -646 412 -1040 1007 -1146 159 -28 443 -30 589
-5 300 54 527 188 692 410 46 62 118 185 112 190 -2 2 -100 65 -218 140 -248
159 -259 162 -300 86 -39 -71 -156 -182 -231 -218 -104 -50 -178 -65 -330 -66
-155 0 -223 14 -337 69 -88 43 -176 127 -219 210 -40 75 -80 202 -89 280 -4
33 -9 68 -11 78 -5 16 40 17 848 17 818 0 854 1 877 19 24 19 25 21 29 219 7
311 -22 509 -102 693 -49 114 -91 180 -169 264 -143 156 -341 257 -585 301
-85 15 -363 26 -432 18z m337 -540 c190 -57 293 -209 319 -473 l7 -71 -557 0
c-452 0 -556 2 -556 13 0 29 44 185 66 236 32 71 102 169 151 207 80 64 170
100 283 112 107 11 193 4 287 -24z"/>
<path d="M9550 5566 c-205 -44 -342 -153 -444 -354 -22 -43 -31 -53 -49 -50
-22 3 -22 6 -27 198 l-5 195 -320 0 -320 0 0 -1315 0 -1315 330 0 330 0 6 750
c6 793 6 785 54 930 62 184 184 306 352 351 88 23 253 20 351 -6 134 -36 118
-59 183 265 65 324 69 298 -49 336 -86 27 -296 35 -392 15z"/>
<path d="M5543 4583 c3 -965 3 -979 25 -1074 60 -262 185 -443 373 -537 257
-129 659 -133 896 -8 116 61 245 187 316 309 15 26 33 47 40 47 34 -1 37 -16
39 -205 l3 -190 318 -3 317 -2 0 1320 0 1320 -330 0 -330 0 0 -720 c0 -433 -4
-760 -10 -818 -34 -310 -159 -495 -384 -564 -93 -29 -273 -32 -356 -6 -117 36
-193 111 -234 232 -20 60 -21 78 -24 969 l-3 907 -330 0 -330 0 4 -977z"/>
<path d="M14830 5300 l0 -260 600 0 600 0 11 -26 c7 -20 6 -31 -4 -43 -8 -9
-296 -351 -641 -760 l-626 -744 0 -274 0 -273 1038 2 1037 3 0 260 0 260 -642
3 c-378 1 -643 6 -643 11 0 5 -2 16 -5 23 -4 9 248 315 635 774 l640 759 0
273 0 272 -1000 0 -1000 0 0 -260z"/>
<path d="M16940 5300 l0 -260 600 0 600 0 6 -25 c3 -13 4 -28 2 -34 -1 -5
-288 -347 -635 -760 l-633 -750 0 -276 0 -275 1035 0 1035 0 0 265 0 265 -639
0 -639 0 -6 25 c-6 22 70 116 628 778 l635 752 1 278 0 277 -995 0 -995 0 0
-260z"/>
</g>
</svg>
